<mxfile host="app.diagrams.net" modified="2022-06-02T06:40:58.307Z" agent="5.0 (Windows NT 10.0; Win64; x64) AppleWebKit/537.36 (KHTML, like Gecko) Chrome/101.0.4951.67 Safari/537.36" etag="Nl6lJuumYGPiw-CZvV_j" version="18.1.2" type="github">
  <diagram id="LbMPbOLTLOJZ_oI8mEUt" name="Page-1">
    <mxGraphModel dx="2035" dy="635" grid="1" gridSize="10" guides="1" tooltips="1" connect="1" arrows="1" fold="1" page="1" pageScale="1" pageWidth="850" pageHeight="1100" math="0" shadow="0">
      <root>
        <mxCell id="0" />
        <mxCell id="1" parent="0" />
        <mxCell id="60L3j7kGqlktmhBH0rx--8" value="" style="rounded=0;whiteSpace=wrap;html=1;fillColor=#dae8fc;strokeColor=#6c8ebf;" vertex="1" parent="1">
          <mxGeometry x="-120" y="280" width="290" height="330" as="geometry" />
        </mxCell>
        <mxCell id="60L3j7kGqlktmhBH0rx--2" value="KTB DC" style="rounded=0;whiteSpace=wrap;html=1;verticalAlign=top;fontStyle=1;fontSize=13;" vertex="1" parent="1">
          <mxGeometry x="-100" y="320" width="250" height="270" as="geometry" />
        </mxCell>
        <mxCell id="60L3j7kGqlktmhBH0rx--11" style="edgeStyle=orthogonalEdgeStyle;rounded=0;orthogonalLoop=1;jettySize=auto;html=1;entryX=0.25;entryY=1;entryDx=0;entryDy=0;fontSize=13;strokeWidth=2;" edge="1" parent="1" source="60L3j7kGqlktmhBH0rx--3" target="60L3j7kGqlktmhBH0rx--6">
          <mxGeometry relative="1" as="geometry" />
        </mxCell>
        <mxCell id="60L3j7kGqlktmhBH0rx--3" value="DB" style="shape=cylinder3;whiteSpace=wrap;html=1;boundedLbl=1;backgroundOutline=1;size=15;" vertex="1" parent="1">
          <mxGeometry x="-57" y="501" width="67.5" height="60" as="geometry" />
        </mxCell>
        <mxCell id="60L3j7kGqlktmhBH0rx--10" style="edgeStyle=orthogonalEdgeStyle;rounded=0;orthogonalLoop=1;jettySize=auto;html=1;entryX=0.868;entryY=1.05;entryDx=0;entryDy=0;entryPerimeter=0;fontSize=13;strokeWidth=2;" edge="1" parent="1" source="60L3j7kGqlktmhBH0rx--4" target="60L3j7kGqlktmhBH0rx--6">
          <mxGeometry relative="1" as="geometry" />
        </mxCell>
        <mxCell id="60L3j7kGqlktmhBH0rx--4" value="" style="aspect=fixed;perimeter=ellipsePerimeter;html=1;align=center;shadow=0;dashed=0;spacingTop=3;image;image=img/lib/active_directory/active_directory.svg;" vertex="1" parent="1">
          <mxGeometry x="60" y="501" width="70" height="59.5" as="geometry" />
        </mxCell>
        <mxCell id="60L3j7kGqlktmhBH0rx--6" value="KTB&lt;br&gt;System" style="rounded=0;whiteSpace=wrap;html=1;" vertex="1" parent="1">
          <mxGeometry x="-70" y="360" width="190" height="60" as="geometry" />
        </mxCell>
        <mxCell id="60L3j7kGqlktmhBH0rx--12" value="CHUBB" style="rounded=0;whiteSpace=wrap;html=1;fillColor=default;strokeColor=#000000;verticalAlign=bottom;align=right;fontStyle=1;spacingRight=15;fontSize=18;strokeWidth=2;" vertex="1" parent="1">
          <mxGeometry x="280" y="240" width="680" height="920" as="geometry" />
        </mxCell>
        <mxCell id="60L3j7kGqlktmhBH0rx--14" value="CHUBB TH DC" style="rounded=0;whiteSpace=wrap;html=1;verticalAlign=top;fontStyle=1;fontSize=13;fillColor=#dae8fc;strokeColor=#6c8ebf;align=right;spacingRight=4;" vertex="1" parent="1">
          <mxGeometry x="295" y="257.5" width="645" height="600" as="geometry" />
        </mxCell>
        <mxCell id="60L3j7kGqlktmhBH0rx--20" value="CHUBB SG DC" style="rounded=0;whiteSpace=wrap;html=1;verticalAlign=top;fontStyle=1;fontSize=13;fillColor=#e1d5e7;strokeColor=#9673a6;" vertex="1" parent="1">
          <mxGeometry x="-230" y="632" width="140" height="260" as="geometry" />
        </mxCell>
        <mxCell id="60L3j7kGqlktmhBH0rx--21" value="PCI - CDE" style="rounded=0;whiteSpace=wrap;html=1;fontSize=13;" vertex="1" parent="1">
          <mxGeometry x="-220" y="752" width="120" height="60" as="geometry" />
        </mxCell>
        <mxCell id="60L3j7kGqlktmhBH0rx--22" value="CHUBB SG DC" style="rounded=0;whiteSpace=wrap;html=1;verticalAlign=top;fontStyle=1;fontSize=13;fillColor=#ffe6cc;strokeColor=#d79b00;" vertex="1" parent="1">
          <mxGeometry x="-40" y="632" width="130" height="260" as="geometry" />
        </mxCell>
        <mxCell id="60L3j7kGqlktmhBH0rx--23" value="PCI - CDE" style="rounded=0;whiteSpace=wrap;html=1;fontSize=13;" vertex="1" parent="1">
          <mxGeometry x="-27.5" y="747" width="105" height="60" as="geometry" />
        </mxCell>
        <mxCell id="60L3j7kGqlktmhBH0rx--24" value="Entry Zone" style="rounded=0;whiteSpace=wrap;html=1;verticalAlign=top;fontStyle=1;fontSize=13;fillColor=#ffe6cc;strokeColor=#d79b00;" vertex="1" parent="1">
          <mxGeometry x="335" y="300" width="90" height="530" as="geometry" />
        </mxCell>
        <mxCell id="60L3j7kGqlktmhBH0rx--26" value="APP ZONE" style="rounded=0;whiteSpace=wrap;html=1;verticalAlign=top;fontStyle=1;fontSize=13;fillColor=#ffe6cc;strokeColor=#d79b00;" vertex="1" parent="1">
          <mxGeometry x="470" y="300" width="260" height="530" as="geometry" />
        </mxCell>
        <mxCell id="60L3j7kGqlktmhBH0rx--27" value="" style="image;html=1;image=img/lib/clip_art/networking/Firewall_02_128x128.png;fontSize=13;fillColor=default;" vertex="1" parent="1">
          <mxGeometry x="340" y="530" width="60" height="50" as="geometry" />
        </mxCell>
        <mxCell id="60L3j7kGqlktmhBH0rx--28" value="" style="rounded=0;whiteSpace=wrap;html=1;verticalAlign=top;fontStyle=1;fontSize=13;fillColor=#ffe6cc;strokeColor=#d79b00;" vertex="1" parent="1">
          <mxGeometry x="750" y="300" width="160" height="530" as="geometry" />
        </mxCell>
        <mxCell id="60L3j7kGqlktmhBH0rx--29" value="SPACE" style="rounded=0;whiteSpace=wrap;html=1;fontSize=13;fillColor=default;" vertex="1" parent="1">
          <mxGeometry x="530" y="490" width="120" height="130" as="geometry" />
        </mxCell>
        <mxCell id="60L3j7kGqlktmhBH0rx--31" value="Voice&lt;br&gt;Storage" style="shape=internalStorage;whiteSpace=wrap;html=1;dx=15;dy=15;rounded=1;arcSize=8;strokeWidth=2;fontSize=13;fillColor=default;" vertex="1" parent="1">
          <mxGeometry x="530" y="366" width="120" height="70" as="geometry" />
        </mxCell>
        <mxCell id="60L3j7kGqlktmhBH0rx--32" value="&lt;span style=&quot;font-size: 11px;&quot;&gt;SYSTEM6&lt;br&gt;&lt;/span&gt;DB" style="strokeWidth=2;html=1;shape=mxgraph.flowchart.database;whiteSpace=wrap;fontSize=13;fillColor=default;verticalAlign=bottom;" vertex="1" parent="1">
          <mxGeometry x="800" y="680" width="60" height="60" as="geometry" />
        </mxCell>
        <mxCell id="60L3j7kGqlktmhBH0rx--33" value="&lt;span style=&quot;font-size: 12px;&quot;&gt;SPACE&lt;/span&gt;" style="strokeWidth=2;html=1;shape=mxgraph.flowchart.database;whiteSpace=wrap;fontSize=13;fillColor=default;verticalAlign=bottom;" vertex="1" parent="1">
          <mxGeometry x="800" y="758" width="60" height="60" as="geometry" />
        </mxCell>
        <mxCell id="60L3j7kGqlktmhBH0rx--34" value="API Gateway" style="sketch=0;points=[[0,0,0],[0.25,0,0],[0.5,0,0],[0.75,0,0],[1,0,0],[0,1,0],[0.25,1,0],[0.5,1,0],[0.75,1,0],[1,1,0],[0,0.25,0],[0,0.5,0],[0,0.75,0],[1,0.25,0],[1,0.5,0],[1,0.75,0]];outlineConnect=0;fontColor=#232F3E;gradientColor=#945DF2;gradientDirection=north;fillColor=#5A30B5;strokeColor=#ffffff;dashed=0;verticalLabelPosition=bottom;verticalAlign=top;align=center;html=1;fontSize=12;fontStyle=0;aspect=fixed;shape=mxgraph.aws4.resourceIcon;resIcon=mxgraph.aws4.api_gateway;" vertex="1" parent="1">
          <mxGeometry x="425" y="536" width="44" height="44" as="geometry" />
        </mxCell>
        <mxCell id="60L3j7kGqlktmhBH0rx--38" style="edgeStyle=orthogonalEdgeStyle;rounded=0;orthogonalLoop=1;jettySize=auto;html=1;fontSize=12;strokeWidth=2;" edge="1" parent="1" source="60L3j7kGqlktmhBH0rx--16" target="60L3j7kGqlktmhBH0rx--17">
          <mxGeometry relative="1" as="geometry">
            <Array as="points">
              <mxPoint x="880" y="358" />
              <mxPoint x="880" y="480" />
            </Array>
          </mxGeometry>
        </mxCell>
        <mxCell id="60L3j7kGqlktmhBH0rx--50" value="Yes File" style="edgeLabel;html=1;align=center;verticalAlign=middle;resizable=0;points=[];fontSize=10;rotation=270;" vertex="1" connectable="0" parent="60L3j7kGqlktmhBH0rx--38">
          <mxGeometry x="0.1033" y="1" relative="1" as="geometry">
            <mxPoint as="offset" />
          </mxGeometry>
        </mxCell>
        <mxCell id="60L3j7kGqlktmhBH0rx--16" value="File Server" style="sketch=0;pointerEvents=1;shadow=0;dashed=0;html=1;strokeColor=#d6b656;fillColor=#fff2cc;labelPosition=center;verticalLabelPosition=bottom;verticalAlign=top;outlineConnect=0;align=center;shape=mxgraph.office.servers.file_server;fontSize=13;" vertex="1" parent="1">
          <mxGeometry x="807.5" y="330" width="45" height="56" as="geometry" />
        </mxCell>
        <mxCell id="60L3j7kGqlktmhBH0rx--39" style="edgeStyle=orthogonalEdgeStyle;rounded=0;orthogonalLoop=1;jettySize=auto;html=1;fontSize=12;strokeWidth=2;" edge="1" parent="1" source="60L3j7kGqlktmhBH0rx--17" target="60L3j7kGqlktmhBH0rx--19">
          <mxGeometry relative="1" as="geometry">
            <Array as="points">
              <mxPoint x="820" y="530" />
              <mxPoint x="820" y="530" />
            </Array>
          </mxGeometry>
        </mxCell>
        <mxCell id="60L3j7kGqlktmhBH0rx--17" value="PCI&amp;nbsp; File Server" style="sketch=0;pointerEvents=1;shadow=0;dashed=0;html=1;strokeColor=#d79b00;fillColor=#ffe6cc;labelPosition=center;verticalLabelPosition=bottom;verticalAlign=top;outlineConnect=0;align=center;shape=mxgraph.office.servers.file_server;fontSize=13;" vertex="1" parent="1">
          <mxGeometry x="815" y="436" width="45" height="56" as="geometry" />
        </mxCell>
        <mxCell id="60L3j7kGqlktmhBH0rx--40" style="edgeStyle=orthogonalEdgeStyle;rounded=0;orthogonalLoop=1;jettySize=auto;html=1;entryX=1.011;entryY=0.556;entryDx=0;entryDy=0;entryPerimeter=0;fontSize=12;strokeWidth=2;" edge="1" parent="1" source="60L3j7kGqlktmhBH0rx--19" target="60L3j7kGqlktmhBH0rx--32">
          <mxGeometry relative="1" as="geometry">
            <Array as="points">
              <mxPoint x="880" y="575" />
              <mxPoint x="880" y="700" />
            </Array>
          </mxGeometry>
        </mxCell>
        <mxCell id="60L3j7kGqlktmhBH0rx--51" value="Bolt Upload" style="edgeLabel;html=1;align=center;verticalAlign=middle;resizable=0;points=[];fontSize=10;rotation=270;" vertex="1" connectable="0" parent="60L3j7kGqlktmhBH0rx--40">
          <mxGeometry x="0.1634" relative="1" as="geometry">
            <mxPoint as="offset" />
          </mxGeometry>
        </mxCell>
        <mxCell id="60L3j7kGqlktmhBH0rx--19" value="S6 Bolt Server" style="aspect=fixed;perimeter=ellipsePerimeter;html=1;align=center;shadow=0;dashed=0;spacingTop=3;image;image=img/lib/active_directory/generic_server.svg;fontSize=13;fillColor=#6666FF;labelBackgroundColor=none;" vertex="1" parent="1">
          <mxGeometry x="807.5" y="560.5" width="38.84" height="69.36" as="geometry" />
        </mxCell>
        <mxCell id="60L3j7kGqlktmhBH0rx--37" value="SYSTEM6" style="rounded=0;whiteSpace=wrap;html=1;fontSize=13;fillColor=default;" vertex="1" parent="1">
          <mxGeometry x="530" y="660" width="120" height="130" as="geometry" />
        </mxCell>
        <mxCell id="60L3j7kGqlktmhBH0rx--41" value="CHUBB SG DC" style="rounded=0;whiteSpace=wrap;html=1;verticalAlign=top;fontStyle=1;fontSize=13;fillColor=#f8cecc;strokeColor=#b85450;align=right;spacingRight=4;" vertex="1" parent="1">
          <mxGeometry x="295" y="870" width="645" height="110" as="geometry" />
        </mxCell>
        <mxCell id="60L3j7kGqlktmhBH0rx--42" value="CHUBB CDE (US)" style="rounded=0;whiteSpace=wrap;html=1;verticalAlign=top;fontStyle=1;fontSize=13;fillColor=#d5e8d4;strokeColor=#82b366;align=right;spacingRight=4;" vertex="1" parent="1">
          <mxGeometry x="295" y="1005" width="645" height="120" as="geometry" />
        </mxCell>
        <mxCell id="60L3j7kGqlktmhBH0rx--43" value="PCI - CDE" style="rounded=0;whiteSpace=wrap;html=1;fontSize=13;fillColor=default;" vertex="1" parent="1">
          <mxGeometry x="335" y="904.5" width="575" height="51" as="geometry" />
        </mxCell>
        <mxCell id="60L3j7kGqlktmhBH0rx--46" style="edgeStyle=orthogonalEdgeStyle;rounded=0;orthogonalLoop=1;jettySize=auto;html=1;entryX=0.5;entryY=1;entryDx=0;entryDy=0;fontSize=18;strokeWidth=2;endArrow=classic;endFill=1;startArrow=classic;startFill=1;" edge="1" parent="1" source="60L3j7kGqlktmhBH0rx--45" target="60L3j7kGqlktmhBH0rx--43">
          <mxGeometry relative="1" as="geometry" />
        </mxCell>
        <mxCell id="60L3j7kGqlktmhBH0rx--48" value="&lt;font style=&quot;font-size: 10px;&quot;&gt;PCI Tokenization&amp;nbsp; (SFTP/SSH)&lt;/font&gt;" style="edgeLabel;html=1;align=center;verticalAlign=middle;resizable=0;points=[];fontSize=18;labelBackgroundColor=none;" vertex="1" connectable="0" parent="60L3j7kGqlktmhBH0rx--46">
          <mxGeometry x="0.1266" y="-1" relative="1" as="geometry">
            <mxPoint x="-13" y="-6" as="offset" />
          </mxGeometry>
        </mxCell>
        <mxCell id="60L3j7kGqlktmhBH0rx--45" value="PCI - CDE" style="rounded=0;whiteSpace=wrap;html=1;fontSize=13;fillColor=default;" vertex="1" parent="1">
          <mxGeometry x="335" y="1049" width="575" height="51" as="geometry" />
        </mxCell>
        <mxCell id="60L3j7kGqlktmhBH0rx--49" style="edgeStyle=orthogonalEdgeStyle;rounded=0;orthogonalLoop=1;jettySize=auto;html=1;fontSize=10;startArrow=classic;startFill=1;endArrow=classicThin;endFill=1;strokeWidth=2;" edge="1" parent="1" source="60L3j7kGqlktmhBH0rx--17" target="60L3j7kGqlktmhBH0rx--43">
          <mxGeometry relative="1" as="geometry">
            <Array as="points">
              <mxPoint x="770" y="464" />
            </Array>
          </mxGeometry>
        </mxCell>
        <mxCell id="60L3j7kGqlktmhBH0rx--52" value="PCI Tokenization (TLS 1.2)" style="edgeLabel;html=1;align=center;verticalAlign=middle;resizable=0;points=[];fontSize=10;rotation=270;" vertex="1" connectable="0" parent="60L3j7kGqlktmhBH0rx--49">
          <mxGeometry relative="1" as="geometry">
            <mxPoint as="offset" />
          </mxGeometry>
        </mxCell>
      </root>
    </mxGraphModel>
  </diagram>
</mxfile>
